<svg width="149mm" height="149mm" version="1.1" viewBox="0 0 149 149" xmlns="http://www.w3.org/2000/svg" xmlns:xlink="http://www.w3.org/1999/xlink">
 <defs>
  <linearGradient id="linearGradient1476">
   <stop style="stop-color:#bd4600" offset="0"/>
   <stop style="stop-color:#bd4600;stop-opacity:0" offset="1"/>
  </linearGradient>
  <linearGradient id="linearGradient855">
   <stop style="stop-color:#ff6007" offset="0"/>
   <stop style="stop-color:#ff6007;stop-opacity:0" offset="1"/>
  </linearGradient>
  <linearGradient id="linearGradient827" x1="58.3" x2="198" y1="111" y2="255" gradientTransform="translate(2.38 .234)" gradientUnits="userSpaceOnUse">
   <stop style="stop-color:#4d008f" offset="0"/>
   <stop style="stop-color:#af52ff" offset="1"/>
  </linearGradient>
  <linearGradient id="linearGradient839" x1="114" x2="92.3" y1="148" y2="143" gradientUnits="userSpaceOnUse" xlink:href="#linearGradient855"/>
  <linearGradient id="linearGradient857" x1="130" x2="117" y1="181" y2="169" gradientUnits="userSpaceOnUse" xlink:href="#linearGradient855"/>
  <linearGradient id="linearGradient859" x1="71.4" x2="63.2" y1="153" y2="146" gradientUnits="userSpaceOnUse" xlink:href="#linearGradient855"/>
  <linearGradient id="linearGradient861" x1="125" x2="117" y1="121" y2="113" gradientUnits="userSpaceOnUse" xlink:href="#linearGradient855"/>
  <linearGradient id="linearGradient881" x1="403" x2="370" y1="601" y2="548" gradientUnits="userSpaceOnUse">
   <stop style="stop-color:#622400" offset="0"/>
   <stop style="stop-color:#622400;stop-opacity:0" offset="1"/>
  </linearGradient>
  <filter id="filter885" style="color-interpolation-filters:sRGB">
   <feGaussianBlur result="blur" stdDeviation="2 2"/>
  </filter>
  <linearGradient id="linearGradient1478" x1="121" x2="100" y1="178" y2="174" gradientTransform="matrix(3.65 -.973 .973 3.65 -155 141)" gradientUnits="userSpaceOnUse" xlink:href="#linearGradient1476"/>
  <filter id="filter1916" x="-.018" y="-.0492" width="1.04" height="1.1" style="color-interpolation-filters:sRGB">
   <feGaussianBlur stdDeviation="0.76574606"/>
  </filter>
  <filter id="filter1990" x="-.302" y="-.302" width="1.6" height="1.6" style="color-interpolation-filters:sRGB">
   <feGaussianBlur stdDeviation="2.8961321"/>
  </filter>
  <filter id="filter2412" x="-.536" y="-.536" width="2.07" height="2.07" style="color-interpolation-filters:sRGB">
   <feGaussianBlur stdDeviation="2.2386584"/>
  </filter>
  <linearGradient id="linearGradient2418" x1="119" x2="117" y1="171" y2="182" gradientTransform="matrix(3.65 -.973 .973 3.65 -155 141)" gradientUnits="userSpaceOnUse" xlink:href="#linearGradient1476"/>
  <linearGradient id="linearGradient860" x1="121" x2="96.4" y1="178" y2="174" gradientTransform="matrix(3.65 -.973 .973 3.65 -155 141)" gradientUnits="userSpaceOnUse" xlink:href="#linearGradient1476"/>
  <filter id="filter1852" x="-.623" y="-.623" width="2.25" height="2.25" style="color-interpolation-filters:sRGB">
   <feGaussianBlur stdDeviation="2.5992477"/>
  </filter>
  <filter id="filter2307" x="-.742" y="-.742" width="2.48" height="2.48" style="color-interpolation-filters:sRGB">
   <feGaussianBlur stdDeviation="3.095058"/>
  </filter>
 </defs>
 <g transform="translate(-30.7 -74.2)">
  <path d="m179 148a74.3 74.3 0 0 1-74.2 74.3 74.3 74.3 0 0 1-74.3-74.2 74.3 74.3 0 0 1 74.1-74.4 74.3 74.3 0 0 1 74.4 74.1" style="fill:url(#linearGradient827)"/>
  <g transform="matrix(1.29 0 0 1.29 -26.4 -41.6)">
   <path d="m114 148a11.5 11.5 0 0 1-11.5 11.5 11.5 11.5 0 0 1-11.5-11.5 11.5 11.5 0 0 1 11.5-11.5 11.5 11.5 0 0 1 11.5 11.5" style="fill:url(#linearGradient839)"/>
   <path transform="matrix(.265 0 0 .265 .0459 1.01)" d="m360 527a43.4 43.4 0 0 0-15.7 33.4 43.4 43.4 0 0 0 43.5 43.4 43.4 43.4 0 0 0 33.4-15.7z" style="fill:url(#linearGradient881);filter:url(#filter885);opacity:.55"/>
   <path d="m114 148a11.5 11.5 0 0 1-11.5 11.5 11.5 11.5 0 0 1-11.5-11.5 11.5 11.5 0 0 1 11.5-11.5 11.5 11.5 0 0 1 11.5 11.5" style="fill:url(#linearGradient839);filter:url(#filter1990)"/>
   <path d="m130 176a5.01 5.01 0 0 1-5.01 5.01 5.01 5.01 0 0 1-5.01-5 5.01 5.01 0 0 1 5-5.01 5.01 5.01 0 0 1 5.02 5" style="fill:url(#linearGradient857)"/>
   <path d="m130 176a5.01 5.01 0 0 1-5.01 5.01 5.01 5.01 0 0 1-5.01-5 5.01 5.01 0 0 1 5-5.01 5.01 5.01 0 0 1 5.02 5" style="fill:url(#linearGradient857)"/>
   <path transform="matrix(.265 0 0 .265 .529 -.529)" d="m456 658s-12.2 15-26.4 17.3c-14.9 2.35-59.5 13.8-59.5 13.8s44.7 7.01 59.4 6.15c14.5-0.844 42.5-9.65 42.5-9.65l-0.0137-0.0234a18.9 18.9 0 0 1-18.1-18.9 18.9 18.9 0 0 1 2.13-8.71z" style="fill:url(#linearGradient1478);filter:url(#filter1916);opacity:.643"/>
   <path d="m130 176a5.01 5.01 0 0 1-5.01 5.01 5.01 5.01 0 0 1-5.01-5 5.01 5.01 0 0 1 5-5.01 5.01 5.01 0 0 1 5.02 5" style="fill:url(#linearGradient857);filter:url(#filter2412)"/>
   <path d="m71.4 148a5.01 5.01 0 0 1-5.01 5.01 5.01 5.01 0 0 1-5.01-5 5.01 5.01 0 0 1 5-5.01 5.01 5.01 0 0 1 5.02 5" style="fill:url(#linearGradient859)"/>
   <path transform="matrix(-.184 .19 -.19 -.184 280 180)" d="m456 658s-12.2 15-26.4 17.3c-14.9 2.35-59.5 13.8-59.5 13.8s44.7 7.01 59.4 6.15c14.5-0.844 42.5-9.65 42.5-9.65l-0.0137-0.0234a18.9 18.9 0 0 1-18.1-18.9 18.9 18.9 0 0 1 2.13-8.71z" style="fill:url(#linearGradient2418);filter:url(#filter1916);opacity:.643"/>
   <path d="m71.4 148a5.01 5.01 0 0 1-5.01 5.01 5.01 5.01 0 0 1-5.01-5 5.01 5.01 0 0 1 5-5.01 5.01 5.01 0 0 1 5.02 5" style="fill:url(#linearGradient859);filter:url(#filter1852)"/>
   <path d="m125 116a5.01 5.01 0 0 1-5.01 5.01 5.01 5.01 0 0 1-5.01-5 5.01 5.01 0 0 1 5-5.01 5.01 5.01 0 0 1 5.02 5" style="fill:url(#linearGradient861)"/>
   <path transform="matrix(-.132 -.229 .229 -.132 29.8 313)" d="m456 658s-12.2 15-26.4 17.3c-14.9 2.35-59.5 13.8-59.5 13.8s44.7 7.01 59.4 6.15c14.5-0.844 42.5-9.65 42.5-9.65l-0.0137-0.0234a18.9 18.9 0 0 1-18.1-18.9 18.9 18.9 0 0 1 2.13-8.71z" style="fill:url(#linearGradient860);filter:url(#filter1916);opacity:.643"/>
   <path d="m125 116a5.01 5.01 0 0 1-5.01 5.01 5.01 5.01 0 0 1-5.01-5 5.01 5.01 0 0 1 5-5.01 5.01 5.01 0 0 1 5.02 5" style="fill:url(#linearGradient861);filter:url(#filter2307)"/>
  </g>
 </g>
</svg>
